{
  "asset": {
    "generator": "@hozo/three real-scene corpus",
    "version": "2.0"
  },
  "scene": 0,
  "scenes": [{ "nodes": [0] }],
  "nodes": [{ "mesh": 0, "name": "Pinned PBR triangle" }],
  "meshes": [{ "primitives": [{ "attributes": { "POSITION": 0 }, "material": 0 }] }],
  "materials": [{
    "name": "Ordinary PBR material",
    "pbrMetallicRoughness": {
      "baseColorFactor": [0.125, 0.45, 0.85, 1],
      "metallicFactor": 0.25,
      "roughnessFactor": 0.65
    }
  }],
  "accessors": [{
    "bufferView": 0,
    "componentType": 5126,
    "count": 3,
    "max": [1, 1, 0],
    "min": [-1, -1, 0],
    "type": "VEC3"
  }],
  "bufferViews": [{ "buffer": 0, "byteLength": 36 }],
  "buffers": [{
    "byteLength": 36,
    "uri": "data:application/octet-stream;base64,"
  }]
}
